<?xml version="1.0" encoding="utf-8"?>
<!-- Generator: Adobe Illustrator 18.0.0, SVG Export Plug-In . SVG Version: 6.00 Build 0)  -->
<!DOCTYPE svg PUBLIC "-//W3C//DTD SVG 1.1//EN" "http://www.w3.org/Graphics/SVG/1.1/DTD/svg11.dtd">
<svg version="1.1" id="Layer_1" xmlns="http://www.w3.org/2000/svg" xmlns:xlink="http://www.w3.org/1999/xlink" x="0px" y="0px"
	 viewBox="0 0 612 792" enable-background="new 0 0 612 792" xml:space="preserve">
<g>
	<path fill="#FDFEFE" d="M285,579.7c-87.7,0-175.4,0-263,0c-2,0-2.3-0.4-2.3-2.4c0-137.3,0-274.6,0-411.9c0-1.9,0.2-2.4,2.3-2.4
		c175.3,0.1,350.6,0.1,526,0c1.8,0,2.2,0.4,2.2,2.2c0,137.4,0,274.8,0,412.2c0,1.8-0.2,2.3-2.2,2.3
		C460.3,579.7,372.7,579.7,285,579.7z M463.1,282.8c-0.4-0.5-0.8-1.1-1.3-1.4c-4.6-2.8-9.2-5.6-13.9-8.3c-1.3-0.8-1.9-1.6-1.9-3.2
		c0.1-5.9,0-11.8,0.1-17.8c0-1.4-0.3-2.4-1.7-3.1c-5.1-2.7-10-5.5-15.1-8.2c-1.7-0.9-2.2-2-2.2-3.8c0.1-5.7,0-11.3,0-17
		c0-1.3-0.2-2.1-1.5-2.9c-5.5-3-10.8-6.1-16.1-9.2c-1.4-0.8-2.4-0.8-3.7-0.1c-5.5,3.1-11.2,6.1-16.8,9.1c-1.3,0.7-1.9,1.7-1.8,3.3
		c0.1,6.2,0,12.3,0.1,18.5c0,1.4-0.4,2.2-1.7,2.9c-4.8,2.5-9.5,5.2-14.3,7.7c-0.7,0.4-1.3,0.6-2,0.1c-3.2-1.8-6.5-3.7-9.7-5.5
		c-1.4-0.8-0.7-1.3,0.3-1.7c-2.2,1.5-3.7-0.3-5.3-1.3c-2.1-1.3-3.7-1.8-6.1-0.3c-4.9,3.1-10.1,5.7-15.1,8.6c-0.7,0.4-1.2,0.6-2,0.1
		c-5.2-3.2-10.4-6.2-15.5-9.4c-1.1-0.7-1.8-0.7-2.8-0.1c-5.3,2.9-10.6,5.8-15.8,8.7c-1.2,0.7-2.2,0.7-3.4,0
		c-4.8-2.8-9.7-5.5-14.5-8.4c-1.4-0.8-2.4-0.9-3.7-0.1c-5.3,3-10.6,5.9-15.9,8.9c-0.9,0.5-1.7,1-2.9,0.3c-5.1-2.9-10.3-5.7-15.4-8.6
		c-1.4-0.8-1.9-1.9-1.9-3.6c0.1-5.6,0-11.2,0.1-16.8c0-1.8-0.5-2.8-2-3.6c-5.1-2.7-10-5.6-15-8.4c-0.7-0.4-1.8-0.7-1.6-1.6
		c0.8-2.5-0.5-4.8-0.3-7.2c0.2-4,0-8.1,0.1-12.2c0-1.1-0.2-1.8-1.2-2.4c-5.1-3.2-10.2-6.5-15.3-9.7c-1.2-0.7-2.1-0.7-3.4,0
		c-4.9,3-9.7,5.8-14.6,8.7c-1.1,0.6-1.9,1-3.3,0.2c-5.3-3.2-10.7-6-16.1-9.1c-0.5-0.2-1.2-0.9-1.7-0.5c-1.4,1-3.7,0-4.4,2.2
		c-0.1,0.4-0.9,0.6-1.4,0.9c-4.5,2.4-9,4.9-13.4,7.3c-0.8,0.4-1.5,0.8-1.5,1.9c0,6.4,0,12.8,0,19.2c0,1.3,0.6,2,1.7,2.7
		c5.2,3,10.3,6.1,15.5,9.1c1.5,0.9,2,2,2,3.7c-0.1,5.5,0,10.9-0.1,16.3c0,1.5,0.4,2.4,1.8,3.3c5.1,3,10.1,6.2,15.1,9.2
		c1.5,0.9,2.1,2,2,3.7c-0.1,5.4-0.1,10.7,0,16.1c0,1.9-0.6,3-2.3,3.8c-4.9,2.5-9.7,5.2-14.6,7.7c-1.6,0.8-2.1,1.8-2.1,3.6
		c0.1,5.8,0,11.7,0.1,17.5c0,1.7-0.6,2.6-2,3.4c-3.9,2.1-7.8,4.2-11.5,6.7c-2.5,1.6-4.5,1.5-7,0c-4.7-2.8-9.5-5.5-14.3-8.2
		c-0.7-0.4-1.3-0.5-2-0.3c-2.2,0.4-4.2-1.2-6.9-0.9c1.3,1.5,1.4,2.4-0.4,3.1c-0.8,0.3-0.6,1.4-0.5,2.2c-0.2,0.1-0.4,0.2-0.6,0.4
		c-0.6,0-1.3,0-1.4,0.8c-0.2,0-0.4,0.1-0.5,0.2c-0.7-0.1-1.3,0-1.4,0.9c-1.3,0.7-2.6,1.4-3.7,2.2c-1.7,1.3-3.2,1.3-5,0.1
		c-5-3-10.2-5.6-15.2-8.5c-1.3-0.7-2.2-0.7-3.6,0c-5.3,3-10.5,6-15.9,8.8c-1.7,0.9-3,1.3-2.9,3.7c0.3,4.6,0.2,9.2,0.2,13.9
		c0,6,0.1,6.3-5.3,9.1c-3.7,1.8-6.2,5.9-11,5.4c0,0,0,0.1,0,0.1c0.5,1.6-1.1,2.6-1,4.2c0.3,5.6,0.1,11.3,0.1,17c0,2.5,0,4.4,3.1,5.8
		c4.5,2,8.6,5.2,12.8,7.8c0.7,0.4,1.2,0.9,1.2,1.8c-0.1,5.7-0.1,11.5-0.1,17.3c0,1.5-0.6,2.3-1.9,3.1c-4.1,2.7-8.2,5.3-12.5,7.7
		c-1.8,1-2.9,2.3-2.8,4.8c0.3,5.2,0.3,10.4,0,15.6c-0.2,3.2,0.8,4.9,3.7,6.3c4.3,2.1,8.4,4.8,12.6,7.2c0.4,0.2,1.2,0.4,0.9,1.2
		c-0.1,0.4-0.4,0.8-1.3,0.2c1,0,1.8-0.8,2.3-0.3c1.5,1.2,2.7,0.6,3.9-0.2c4.5-2.8,9.1-5.5,13.6-8.4c1.4-0.9,2.4-0.9,3.7-0.1
		c4.5,2.7,9,5.4,13.6,8c1.4,0.8,1.9,1.7,1.9,3.3c-0.1,5.5,0.1,11-0.1,16.5c0,2.1,0.7,3.1,2.5,4.1c5.7,3.2,11.6,6.1,16.9,9.9
		c0.9,0.6,1.6,0.1,2.2-0.2c5.8-3.3,11.6-6.7,17.4-10c0.6-0.4,1.1-0.8,1.1-1.7c0-5.7,0.2-11.5,0-17.3c-0.1-2.2,0.6-3.4,2.4-4.4
		c4.8-2.6,9.6-5.3,14.3-8.2c1.3-0.8,2.1-0.8,3.3-0.1c4.7,2.9,9.4,5.7,14.2,8.5c1.2,0.7,1.7,1.6,1.6,3c0,5.6,0,11.2,0,16.8
		c0,1.7,0.5,2.7,1.9,3.6c4.4,2.8,8.7,5.9,13.1,8.7c1.7,1.1,2.1,2.4,2.1,4.3c0,5.4,0,10.7-0.1,16.1c0,1.5,0.5,2.3,1.8,3.1
		c5.2,3,10.3,6.1,15.5,9.1c1.2,0.7,1.8,1.6,1.8,3.1c-0.1,5.6,0,11.2-0.1,16.8c0,1.5,0.4,2.4,1.7,3.1c5.9,3.5,11.8,7.1,17.6,10.6
		c0.8,0.5,1.5,0.5,2.2,0.1c5.7-3.4,11.5-6.9,17.2-10.3c1-0.6,1.5-1.4,1.4-2.6c-0.5-5,0-10.1-0.3-15c-0.2-3.1,0.9-5.2,3.6-6.7
		c4.4-2.4,8.8-4.9,13.1-7.4c1.1-0.6,1.8-0.6,2.8,0c5,3,10,5.8,15.1,8.7c0.9,0.5,1.4,1,1.4,2c0,5.6,0.2,11.2-0.1,16.8
		c-0.1,1.9,0.3,3,1.8,3.9c5.7,3.4,11.3,6.8,17,10.2c0.9,0.6,1.7,0.5,2.7-0.1c4.9-3,9.8-5.8,14.6-8.9c1.4-0.9,2.5-0.8,3.8,0
		c4.6,2.7,9.3,5.3,13.8,8.1c1.8,1.2,3.3,1.5,5.3,0.2c1.3-0.8,2.6-1.7,3.9-2.4c3.8-2.1,7.5-4.4,11.3-6.5c1.3-0.7,1.8-1.6,1.8-3.1
		c-0.1-5.7,0-11.3-0.1-17c0-1.8,0.6-2.9,2.1-3.7c5.1-2.7,10.1-5.5,15.1-8.3c1.3-0.7,2.2-0.7,3.6,0.1c5.2,3.1,10.6,6,15.8,9
		c1,0.6,1.8,0.6,2.9,0c4.8-3,9.8-5.7,14.6-8.7c1.4-0.8,2.4-0.8,3.7-0.1c5.3,3,10.7,5.8,15.8,8.9c1.4,0.8,2.2,0.6,3.4-0.1
		c4.8-2.9,9.6-5.7,14.3-8.7c1.3-0.8,2.3-1,3.7-0.1c5.3,3.2,10.8,6.3,16,9.6c0.8,0.5,1.1,0,1.3-0.1c5.8-3.7,11.6-7.4,17.4-11
		c0.8-0.5,1.2-1.2,1.2-2.2c0-5.7,0.1-11.3,0-17c0-1.9,0.7-2.9,2.3-3.7c5.1-2.9,10-6,15-8.9c1.2-0.7,1.7-1.6,1.6-2.9
		c-0.1-5.7-0.2-11.5,0-17.3c0.1-2.4-0.8-3.7-2.7-4.8c-4.5-2.6-8.9-5.3-13.4-7.7c-2.2-1.3-3.1-2.9-3-5.5c0.2-5.3,0-10.6,0-15.8
		c0-1.1-0.2-1.8-1.4-2.4c-2.4-1.5-5.5-2.4-7-4.5c-1.1-1.5-2.3-0.8-3.3-1.6c-1.7-1.3-3.6-2.1-5.5-3c-1.3-0.6-1.8-1.4-1.7-2.7
		c0-5.5,0.1-10.9,0-16.3c0-2,0.7-3,2.4-3.9c5.2-2.7,10.2-5.6,15.3-8.4c0.8-0.4,1.9-1.2,1.7-1.7c-0.8-1.8-0.2-3.7-0.3-5.5
		c-0.3-4.8-0.1-9.5,0-14.4c0-1.5-0.3-2.4-1.7-3.1c-5.3-3-10.5-6.2-15.8-9.1c-1.4-0.8-1.7-1.7-1.7-3.1c0-6,0-12,0-18
		c0-1.8-0.6-2.5-2-3.4c-5.5-3-11.2-5.6-16.6-9c0-6.7,0-13.4,0-20.1C463.6,283.6,463.5,283.1,463.1,282.8z M116.9,306.3
		c-0.3,0-0.7,0.2-0.7,0.8c0,0.6,0.2,0.9,0.8,1c0.6,0,0.9-0.2,1-0.8C118,306.6,117.7,306.3,116.9,306.3z M114.1,307.3
		c0.5,0.1,0.8,0,0.9-0.3c0-0.5-0.2-0.7-0.7-0.7c-0.4,0-0.9,0-0.8,0.5C113.5,307,114,307.2,114.1,307.3z"/>
	<path fill="#2A98E1" d="M116.5,310.1c0.2,0,0.4-0.1,0.5-0.2c0.6-0.1,1.1-0.3,1.4-0.8c0.2-0.1,0.4-0.2,0.6-0.4
		c2.7-1.3,5.3-2.7,7.7-4.4c0.7-0.2,1.4-0.1,2,0.3c4.8,2.8,9.6,5.4,14.3,8.2c2.4,1.5,4.5,1.6,7,0c3.7-2.4,7.6-4.6,11.5-6.7
		c1.5-0.8,2.1-1.7,2-3.4c-0.1-5.8,0-11.7-0.1-17.5c0-1.8,0.5-2.7,2.1-3.6c4.9-2.5,9.7-5.2,14.6-7.7c1.7-0.8,2.3-1.9,2.3-3.8
		c-0.1-5.4-0.1-10.7,0-16.1c0-1.8-0.5-2.9-2-3.7c-5.1-3.1-10-6.3-15.1-9.2c-1.5-0.8-1.8-1.8-1.8-3.3c0-5.5,0-10.9,0.1-16.3
		c0-1.8-0.5-2.9-2-3.7c-5.1-2.9-10.2-6-15.4-9c-1.1-0.6-1.7-1.4-1.7-2.7c0-6.4,0-12.8,0-19.2c0-1.2,0.7-1.5,1.5-1.9
		c4.5-2.4,9-4.9,13.4-7.3c0.5-0.3,1.3-0.5,1.4-0.9c0.8-2.2,3.1-1.3,4.4-2.2c0.5-0.4,1.2,0.3,1.8,0.6c5.4,3,10.8,5.9,16.1,9.1
		c1.4,0.8,2.2,0.4,3.3-0.2c4.9-2.9,9.8-5.8,14.6-8.7c1.2-0.7,2.2-0.7,3.4,0c5.1,3.3,10.2,6.5,15.3,9.7c0.9,0.6,1.2,1.3,1.2,2.4
		c-0.1,4,0.1,8.1-0.1,12.2c-0.1,2.4,1.1,4.7,0.3,7.2c-0.3,0.9,0.9,1.2,1.6,1.6c5,2.8,10,5.6,15,8.4c1.5,0.8,2.1,1.8,2,3.6
		c-0.1,5.6,0,11.2-0.1,16.8c0,1.7,0.5,2.8,1.9,3.6c5.2,2.9,10.3,5.6,15.4,8.6c1.2,0.7,1.9,0.2,2.9-0.3c5.3-3,10.6-5.9,15.9-8.9
		c1.4-0.8,2.3-0.8,3.7,0.1c4.8,2.9,9.6,5.6,14.5,8.4c1.2,0.7,2.2,0.6,3.4,0c5.3-2.9,10.6-5.8,15.8-8.7c1.1-0.6,1.8-0.5,2.8,0.1
		c5.1,3.2,10.4,6.2,15.5,9.4c0.8,0.5,1.3,0.2,2-0.1c5.1-2.9,10.2-5.5,15.1-8.6c2.4-1.5,4-1,6.1,0.3c1.6,1,3.1,2.8,5.3,1.3
		c-1,0.4-1.7,0.9-0.3,1.7c3.2,1.8,6.5,3.7,9.7,5.5c0.7,0.4,1.3,0.2,2-0.1c4.7-2.6,9.5-5.3,14.3-7.7c1.3-0.7,1.7-1.5,1.7-2.9
		c0-6.2,0-12.3-0.1-18.5c0-1.7,0.6-2.6,1.8-3.3c5.6-3.1,11.2-6,16.8-9.1c1.4-0.8,2.4-0.8,3.7,0.1c5.3,3.2,10.7,6.3,16.1,9.2
		c1.4,0.7,1.6,1.6,1.5,2.9c0,5.7,0,11.3,0,17c0,1.8,0.5,3,2.2,3.8c5.1,2.7,10.1,5.5,15.1,8.2c1.4,0.7,1.7,1.7,1.7,3.1
		c0,5.9,0,11.8-0.1,17.8c0,1.6,0.5,2.4,1.9,3.2c4.7,2.7,9.3,5.5,13.9,8.3c0.5,0.3,0.9,0.9,1.3,1.4c0,6.6,0,13.2,0,19.9
		c0,0.5-0.1,1.2,0.4,1.6c5.3,3.4,11,6,16.6,9c1.5,0.8,2.1,1.6,2,3.4c-0.1,6,0,12,0,18c0,1.4,0.2,2.3,1.7,3.1
		c5.3,2.9,10.5,6.1,15.8,9.1c1.3,0.7,1.7,1.7,1.7,3.1c-0.1,4.8-0.3,9.6,0,14.4c0.1,1.8-0.4,3.7,0.3,5.5c0.2,0.5-1,1.2-1.7,1.7
		c-5.1,2.8-10.2,5.6-15.3,8.4c-1.7,0.9-2.5,1.8-2.4,3.9c0.2,5.5,0.1,10.9,0,16.3c0,1.4,0.4,2.1,1.7,2.7c1.9,0.9,3.8,1.8,5.5,3
		c1,0.8,2.2,0.1,3.3,1.6c1.6,2.1,4.6,3,7,4.5c1.2,0.7,1.4,1.4,1.4,2.4c0,5.3,0.1,10.6,0,15.8c-0.1,2.6,0.7,4.2,3,5.5
		c4.5,2.5,8.9,5.2,13.4,7.7c1.9,1.1,2.8,2.3,2.7,4.8c-0.2,5.7-0.1,11.5,0,17.3c0,1.4-0.4,2.2-1.6,2.9c-5,2.9-10,6-15,8.9
		c-1.6,0.9-2.3,1.8-2.3,3.7c0.1,5.6,0,11.3,0,17c0,1-0.3,1.7-1.2,2.2c-5.8,3.7-11.5,7.4-17.4,11c-0.2,0.1-0.5,0.7-1.3,0.1
		c-5.3-3.3-10.7-6.3-16-9.6c-1.4-0.8-2.4-0.7-3.7,0.1c-4.7,2.9-9.6,5.7-14.3,8.7c-1.2,0.7-2,1-3.4,0.1c-5.2-3.1-10.6-5.9-15.8-8.9
		c-1.3-0.7-2.3-0.8-3.7,0.1c-4.8,3-9.8,5.7-14.6,8.7c-1.1,0.6-1.8,0.6-2.9,0c-5.3-3-10.6-5.9-15.8-9c-1.3-0.8-2.2-0.8-3.6-0.1
		c-5,2.8-10,5.5-15.1,8.3c-1.5,0.8-2.2,1.9-2.1,3.7c0.1,5.7,0,11.3,0.1,17c0,1.5-0.5,2.3-1.8,3.1c-3.8,2.1-7.5,4.3-11.3,6.5
		c-1.3,0.8-2.6,1.6-3.9,2.4c-2,1.3-3.4,1-5.3-0.2c-4.5-2.8-9.2-5.4-13.8-8.1c-1.3-0.8-2.4-0.8-3.8,0c-4.8,3-9.8,5.8-14.6,8.9
		c-1,0.6-1.8,0.6-2.7,0.1c-5.6-3.4-11.3-6.9-17-10.2c-1.6-0.9-1.9-2-1.8-3.9c0.2-5.6,0-11.2,0.1-16.8c0-1-0.4-1.5-1.4-2
		c-5.1-2.8-10.1-5.7-15.1-8.7c-1-0.6-1.8-0.6-2.8,0c-4.3,2.5-8.7,4.9-13.1,7.4c-2.6,1.5-3.7,3.6-3.6,6.7c0.3,5-0.2,10,0.3,15
		c0.1,1.2-0.4,1.9-1.4,2.6c-5.7,3.4-11.5,6.9-17.2,10.3c-0.7,0.4-1.4,0.4-2.2-0.1c-5.8-3.6-11.7-7.2-17.6-10.6
		c-1.3-0.8-1.7-1.7-1.7-3.1c0.1-5.6,0-11.2,0.1-16.8c0-1.6-0.5-2.4-1.8-3.1c-5.2-3-10.3-6.1-15.5-9.1c-1.3-0.7-1.8-1.6-1.8-3.1
		c0.1-5.4,0-10.7,0.1-16.1c0-1.8-0.4-3.2-2.1-4.3c-4.4-2.8-8.7-5.8-13.1-8.7c-1.4-0.9-1.9-1.9-1.9-3.6c0.1-5.6,0-11.2,0-16.8
		c0-1.4-0.4-2.2-1.6-3c-4.7-2.8-9.4-5.6-14.2-8.5c-1.2-0.7-2-0.7-3.3,0.1c-4.7,2.9-9.5,5.5-14.3,8.2c-1.8,1-2.5,2.1-2.4,4.4
		c0.2,5.7,0,11.5,0,17.3c0,0.9-0.4,1.3-1.1,1.7c-5.8,3.4-11.6,6.7-17.4,10c-0.6,0.4-1.3,0.9-2.2,0.2c-5.4-3.7-11.2-6.7-16.9-9.9
		c-1.8-1-2.5-2-2.5-4.1c0.2-5.5,0-11,0.1-16.5c0-1.6-0.5-2.5-1.9-3.3c-4.6-2.6-9.1-5.3-13.6-8c-1.4-0.8-2.4-0.8-3.7,0.1
		c-4.5,2.9-9.1,5.6-13.6,8.4c-1.3,0.8-2.5,1.4-3.9,0.2c-0.6-0.5-1.3,0.2-2.3,0.3c0.9,0.5,1.2,0.1,1.3-0.2c0.2-0.8-0.4-0.9-0.9-1.2
		c-4.2-2.4-8.3-5.1-12.6-7.2c-2.9-1.4-3.9-3.1-3.7-6.3c0.3-5.2,0.3-10.4,0-15.6c-0.1-2.5,1-3.8,2.8-4.8c4.2-2.4,8.4-5.1,12.5-7.7
		c1.2-0.8,1.8-1.6,1.9-3.1c0-5.7,0-11.5,0.1-17.3c0-1-0.5-1.4-1.2-1.8c-4.2-2.6-8.3-5.8-12.8-7.8c-3.1-1.4-3.1-3.3-3.1-5.8
		c0-5.7,0.2-11.3-0.1-17c-0.1-1.7,1.5-2.7,1-4.2c0,0,0-0.1,0-0.1c4.8,0.5,7.3-3.6,11-5.4c5.5-2.8,5.3-3.1,5.3-9.1
		c0-4.6,0.1-9.2-0.2-13.9c-0.1-2.4,1.2-2.8,2.9-3.7c5.4-2.8,10.7-5.8,15.9-8.8c1.3-0.8,2.3-0.7,3.6,0c5.1,2.9,10.2,5.5,15.2,8.5
		c1.9,1.1,3.3,1.2,5-0.1c1.2-0.9,2.5-1.5,3.7-2.2C115.7,310.9,116.1,310.5,116.5,310.1z M165.7,295.2L165.7,295.2c0,3,0,6,0,9
		c0,1.4-0.3,2.2-1.6,2.9c-5.4,3-10.8,6.2-16.2,9.3c-0.9,0.5-1.8,0.5-2.7,0c-5.2-3-10.5-5.8-15.6-8.9c-1.4-0.8-2.4-0.9-3.7-0.1
		c-5.2,3-10.4,5.8-15.5,8.8c-1.3,0.7-2.1,0.7-3.3,0c-5.4-3-10.9-6-16.3-9c-0.9-0.5-1.7-0.8-2.7-0.2c-4.9,2.8-9.9,5.5-14.8,8.2
		c-1.6,0.9-2.3,2-2.2,3.9c0.1,5.3-0.1,10.6,0.1,15.8c0.1,2.8-0.6,4.4-3.2,5.7c-4,2.1-7.7,4.8-11.7,7c-1.7,0.9-2.5,1.9-2.5,3.7
		c0,5.5,0,11,0,16.5c0,1,0.3,1.5,1.2,2.1c4.5,2.9,8.8,6,13.5,8.5c2,1.1,2.8,2.5,2.7,4.9c-0.2,5.7-0.1,11.3,0,17c0.1,2-0.8,3.1-2.3,4
		c-4.4,2.8-8.9,5.6-13.3,8.4c-1.3,0.8-1.8,1.8-1.8,3.4c0.1,4.3,0.2,8.6,0,12.9c-0.2,3.5,0.4,5.6,4.3,7.2c4.2,1.8,8.3,4.2,12.1,6.9
		c1.1,0.7,2.1,0.7,3.2,0c4.5-2.8,9.1-5.6,13.5-8.6c1.7-1.1,3.1-1.2,4.9-0.1c4.8,3,9.5,6.1,14.6,8.6c2.3,1.2,2.8,2.6,2.7,4.7
		c0,5.5,0,10.9,0,16.3c0,1.4,0.4,2.1,1.7,2.9c4.9,2.7,9.8,5.6,14.6,8.4c1.2,0.7,2.3,0.9,3.7,0c4.5-2.8,9.1-5.5,13.8-8
		c1.3-0.7,1.7-1.4,1.7-2.8c0-5.1,0-10.2,0-15.3c0-2.6-0.3-4.7,3.3-6.1c5.4-2.1,10.1-5.7,15.1-8.7c1.6-1,3.1-1.1,4.5,0
		c4.6,3.5,9.7,6,14.7,8.8c2,1.2,2.6,2.2,2.6,4.2c0,5.6,0,11.2,0,16.8c0,1-0.1,1.8,0.9,2.5c4.7,3,9.2,6.2,14,9.1c1.7,1,2.2,2,2.1,3.8
		c-0.1,5.3,0.1,10.6-0.1,15.8c0,2.1,0.8,3.4,2.4,4.3c5,2.9,9.8,5.9,14.8,8.7c1.7,0.9,2.1,2,1.9,3.7c-0.5,5-0.1,10-0.2,15.1
		c-0.1,2,0.6,3.5,2.4,4.6c4.7,2.9,9.5,5.8,14.3,8.6c1.4,0.8,2.3,0.7,3.6,0c4.6-2.8,9.2-5.5,13.8-8.2c1.3-0.7,1.7-1.7,1.7-3.2
		c0-5.8,0-11.7,0-17.5c0-1.8,0.5-2.8,2.2-3.6c4.9-2.1,9.3-5,14-7.5c1.8-1,2.7-2.2,2.6-4.4c-0.2-5.4,0-10.7-0.1-16.1
		c0-2,0.7-3.2,2.3-4c5.3-2.9,10.4-5.8,15.5-8.9c1.2-0.7,1.3-1.4,1.3-2.5c0-5.3,0-10.6,0-15.8c0-1.7-0.6-2.6-2-3.5
		c-5.3-3.1-10.5-6.3-15.8-9.4c-0.9-0.5-1.3-1-1.3-2c0-6.5,0.1-13,0.1-19.5c0-0.9,0.2-1.6,1.2-2.1c5.4-3.2,10.8-6.5,16.2-9.7
		c1.2-0.7,1.7-1.5,1.7-2.9c0-5.7,0-11.3,0-17c0-1.1,0-1.9,1.2-2.6c5.2-3,10.2-6.2,15.4-9.2c1.7-0.9,2.2-2,2.2-3.8
		c-0.1-5.5-0.1-10.9,0.1-16.3c0.1-1.8-0.4-2.8-2-3.6c-4.8-2.3-9.6-4.6-14.3-7.1c-1.1-0.6-1.8-0.5-2.9,0.1c-4.8,2.8-9.6,5.5-14.4,8.4
		c-1.7,1.1-3.1,0.9-4.7,0c-5-2.7-10-5.3-14.9-7.9c-1.7-0.9-3.2-1.1-4.9,0c-4.4,2.7-9,5.2-13.3,7.8c-1.4,0.9-2.5,0.8-4,0.1
		c-5.2-2.5-10.1-5.6-15.5-7.7c-1.5-0.6-3.7-1.2-3.8-3.8c0-6.2,0.2-12.4-0.1-18.6c-0.1-2.1-0.7-2.8-2.1-3.6c-4.8-2.7-10-4.5-14.7-7.3
		c-1.5-0.8-1.9-1.7-1.9-3.2c0.1-5.7,0-11.5,0.1-17.3c0-1.5-0.1-2.9-1.7-3.7c-4.4-2.5-8.8-5-13.1-7.6c-1-0.6-1.7-0.6-2.6,0
		c-4.9,2.7-9.8,5.4-14.8,7.9c-1.2,0.6-1.7,1.3-1.6,2.6C165.8,289,165.7,292.1,165.7,295.2z M315.5,358.4
		C315.4,358.4,315.4,358.4,315.5,358.4c0,2.9,0,5.8,0,8.8c-0.1,1.7,0.6,2.5,1.9,3.2c4.5,2.4,9,4.9,13.5,7.4c0.9,0.5,1.6,0.5,2.6,0
		c5.5-2.6,10.7-5.7,16-8.5c1.2-0.7,2-0.8,3.3,0c5.4,3.6,10.8,7,16.3,10.5c1,0.6,1.5,1.3,1.5,2.5c0,6.3,0,12.7,0,19
		c0,1.2-0.4,1.8-1.5,2.5c-5.2,3.1-10.3,6.3-15.5,9.3c-1.4,0.8-2,1.8-1.9,3.5c0.1,4.8,0.2,9.6,0,14.4c-0.1,2.7,1.4,4.1,3.2,5.1
		c4.6,2.4,9.1,5.1,13.6,7.8c1.7,1,2.2,2.1,2.1,3.9c-0.1,5.4,0,10.7,0,16.1c0,1.8,0.5,3,2.1,3.8c4.9,2.6,9.7,5.2,14.4,8
		c1.6,1,2.8,0.3,4-0.3c5.3-2.9,10.5-5.7,15.7-8.7c1-0.6,1.7-0.7,2.8,0c5.5,3.4,11,6.7,16.6,10c1.1,0.7,1.2,1.6,1.2,2.7
		c0,5.7,0.1,11.5,0,17.3c0,1.8,0.6,2.8,2.1,3.7c4.9,2.6,9.8,5.3,14.6,8.1c1.2,0.7,2,0.6,3.1-0.1c4.8-3,9.7-5.7,14.5-8.8
		c1.3-0.8,2.3-0.9,3.6-0.1c4.9,2.9,9.9,5.7,14.7,8.6c1.4,0.8,2.5,1,3.9,0c4.3-3,8.7-5.8,13.2-8.5c1.5-0.9,1.8-1.8,1.8-3.3
		c0-5.4,0-10.7-0.1-16.1c0-2,0.8-3.3,2.5-4.3c5.1-2.9,10.1-6,15.2-8.9c1.2-0.7,1.5-1.6,1.5-2.8c0-5.4-0.1-10.7,0-16.1
		c0-1.4-0.4-2-1.6-2.6c-5.5-3.2-10.8-6.4-16.3-9.5c-1.1-0.6-1.4-1.3-1.4-2.5c0-5-0.2-9.9,0-14.8c0.2-3.4-0.1-6-4-6.9
		c-0.5-0.1-0.8-0.8-1.3-1c-4.4-2.3-8.3-5.4-13.1-6.8c-0.5-0.1-0.6-0.6-0.6-1.1c0.6-6.9,0.2-13.8,0.2-20.6c0-1.9,0.7-2.9,2.3-3.7
		c4.2-2.2,8.5-4.3,12.5-6.9c1.5-1,4.1-1.1,4-4.1c-0.2-5.4-0.1-10.9,0-16.3c0-1.6-0.5-2.5-1.9-3.3c-4.8-2.7-9.6-5.6-14.4-8.5
		c-1-0.6-1.9-0.6-2.9,0c-5.1,3.1-10.3,6.1-15.4,9.2c-1.2,0.7-2.2,0.8-3.4,0c-4.4-2.7-8.8-5.4-13.1-8.2c-1.9-1.3-3.5-1.4-5.5-0.1
		c-4.5,2.8-9.1,5.4-13.7,8.2c-1.1,0.7-2,0.7-3.1,0c-5.3-3-10.6-6-15.8-9.1c-1-0.6-1.9-0.7-2.9-0.1c-5.1,2.9-10.2,5.6-15.1,8.6
		c-1.6,1-2.8,1.2-4.4,0.3c-4.4-2.6-8.9-5.3-13.4-7.8c-1.9-1.1-3.8-2.3-6.4-0.6c-4.7,3.1-9.8,5.6-14.7,8.4c-1.4,0.8-2.5,0.7-3.8,0
		c-5-2.9-10.1-5.7-15.1-8.7c-1.7-1-2.9-0.8-4.4,0.1c-4,2.4-8,4.8-12.1,7.1c-1.3,0.8-2.1,1.5-1.9,3.3
		C315.7,352.8,315.5,355.6,315.5,358.4z M296.6,325.9L296.6,325.9c0,3.3,0.1,6.5,0,9.7c0,1.1,0.4,1.8,1.4,2.3
		c4.8,2.3,9.5,4.7,14.3,7c1.1,0.5,2.2,1.1,3.7,0.1c4.6-2.9,9.3-5.5,13.9-8.3c1.2-0.7,2.3-0.7,3.6,0c5.2,3,10.4,5.8,15.6,8.8
		c1.3,0.7,2.2,0.9,3.6,0.1c5.1-3,10.3-5.7,15.4-8.7c1.5-0.8,2.6-0.9,4,0c5.1,3,10.3,5.8,15.3,8.8c1.2,0.7,2.2,0.7,3.4,0
		c5.1-3,10.2-5.9,15.3-8.9c1.1-0.6,2-0.8,3.4-0.1c5.2,3.1,10.6,5.9,15.8,8.9c1.3,0.7,2.1,0.7,3.5-0.1c4.7-2.9,9.6-5.6,14.4-8.4
		c1.4-0.8,2.4-0.8,3.7,0c4.7,3,9.5,5.8,14.3,8.7c0.8,0.5,1.5,0.9,2.6,0.2c4.8-3,9.7-5.8,14.6-8.7c1-0.6,1.8-1.3,1.8-2.6
		c0-5.7,0-11.3,0-17c0-1.1-0.1-2.2-1.2-2.8c-5.1-2.7-10.2-5.6-15.5-8c-1.9-0.9-2.5-1.8-2.5-3.7c0.1-5.8,0-11.7,0-17.5
		c0-1.7-0.4-2.8-2-3.7c-4.6-2.6-9.1-5.5-13.7-8.3c-1-0.6-1.2-1.3-1.2-2.3c0-5.7-0.1-11.5,0.1-17.3c0-2.2-0.7-3.4-2.5-4.4
		c-5.1-2.7-10-5.5-15-8.3c-1.2-0.6-1.7-1.5-1.6-2.9c0.1-5.8,0-11.7,0-17.5c0-1.7-0.6-2.7-2-3.5c-4.6-2.4-9.1-4.9-13.5-7.6
		c-1.4-0.8-2.4-0.7-3.6,0c-4.9,2.7-9.7,5.5-14.6,8c-1.5,0.8-1.8,1.7-1.8,3.3c0.1,6-0.1,12,0.1,18c0,2.1-0.9,3.2-2.5,3.9
		c-5,2.3-9.7,5.1-14.5,7.8c-1.7,1-3.6,1-5,0c-3.7-2.7-7.9-4.4-11.5-7c-3.4-2.4-6.3-2.3-9.7,0.1c-4,2.8-8.5,4.9-12.8,7.3
		c-0.9,0.5-1.6,0.7-2.6,0c-5-3.2-10.1-6.2-15.2-9.3c-0.7-0.4-1.3-0.7-2-0.3c-5.3,2.8-10.7,5.4-15.7,8.7c-1.1,0.7-1.6,1.7-1.5,3
		c0.5,6.1,0.1,12.3,0.3,18.4c0,1.3-0.5,2-1.7,2.6c-5.2,2.5-10.3,5.3-15.5,7.7c-1.5,0.7-2,1.5-2,3.1c0.1,4.4,0.3,8.8,0,13.1
		c-0.3,4.2,0.7,7,5,8.6c3.7,1.4,6.9,4,10.7,5.1c3.3,1,3.5,2.8,3.4,5.4C296.5,320.6,296.6,323.2,296.6,325.9z M368.2,520.3
		C368.2,520.3,368.2,520.3,368.2,520.3c0-2.8,0.1-5.7,0-8.5c0-1.6,0.3-2.5,2-3.4c5.6-2.9,11.1-6,16.6-9.1c1.6-0.9,3-1,4.7,0
		c5.1,3,10.4,5.8,15.6,8.8c0.8,0.4,1.4,0.5,2.2,0c4.7-2.8,9.4-5.5,14.2-8.3c1.1-0.6,1.5-1.3,1.5-2.5c0-5.6,0.1-11.2,0.1-16.8
		c0-1.3-0.4-2.2-1.6-3c-4.7-2.7-9.3-5.5-13.9-8.4c-1.3-0.8-2.1-0.7-3.3,0c-5.2,2.9-10.5,5.7-15.7,8.7c-1.5,0.9-2.6,0.8-4,0
		c-5.5-3.2-11.1-6.2-16.7-9.2c-1.3-0.7-1.7-1.5-1.7-2.9c0-5.6,0-11.2,0-16.8c0-1.5-0.3-2.7-1.7-3.5c-4.7-2.7-9.4-5.3-14-8.1
		c-1.4-0.8-3.6-1.2-3.6-3.5c0-6.1,0.3-12.3,0-18.4c0-1.4,0.3-2.5,1.8-3.4c5.3-3,10.5-6.3,15.7-9.4c1-0.6,1.8-1.2,1.8-2.6
		c-0.1-5.5,0-11,0-16.5c0-0.8-0.1-1.6-0.9-2.1c-4.8-3.1-9.4-6.1-14.3-9.1c-1.2-0.7-2.4-1-3.9-0.1c-5,2.9-10.1,5.5-15.1,8.2
		c-1.2,0.6-2,0.8-3.3,0c-4.9-2.8-9.9-5.5-14.8-8.2c-1-0.6-1.7-0.7-2.8,0c-5.2,3.2-10.4,6.2-15.7,9.2c-1.1,0.6-1.1,1.5-1.1,2.4
		c0,5.5-0.1,11,0,16.5c0,2.1-0.8,3.3-2.5,4.2c-4.5,2.6-8.9,5.3-13.4,7.8c-2.1,1.3-3.3,2.8-3,5.5c0.3,4.4,0.2,8.9,0,13.4
		c0,2,0.7,3.1,2.4,4c4.8,2.7,9.4,5.6,14.2,8.4c1.7,1,2.4,2.2,2.3,4.3c-0.2,5.7-0.2,11.3,0,17c0,2-0.7,3.1-2.3,4
		c-4.9,2.8-9.8,5.7-14.7,8.5c-1.3,0.7-1.8,1.6-1.8,3.1c0.1,5.5,0,11,0,16.5c0,1.1,0.2,1.9,1.2,2.4c4.8,2.4,9.2,5.5,14.3,7.5
		c1.7,0.7,3.5,1.8,3.6,3.9c0.2,6,0.4,12,0,17.9c0,1.2,0.2,1.8,1.2,2.3c4.7,2.8,9.2,5.7,14,8.4c1.1,0.6,2.1,2,3.9,0.8
		c4.7-3,9.5-5.8,14.3-8.7c1.5-0.9,2.6-1.1,4.2-0.1c5,3,10.1,5.8,15.1,8.7c1,0.6,1.6,0.5,2.6,0c5.1-2.4,9.7-5.8,14.7-8.3
		c1.2-0.6,1.6-1.5,1.5-2.7C368.1,526.3,368.2,523.3,368.2,520.3z M258.2,325.6L258.2,325.6c0,2.9,0.2,5.8,0,8.8
		c-0.1,2.1,0.7,3.3,2.5,4.1c5.1,2.5,10.1,5.1,15.1,7.8c1.3,0.7,2.1,0.5,3.3-0.2c4-2.4,8-4.9,12.2-7c2.3-1.2,3-3.1,3.1-5.2
		c0.1-5.5,0-10.9,0-16.3c0-0.9-0.2-1.5-1.2-2c-5.2-3.1-10.7-5.5-16.1-8.2c-1.6-0.8-2-1.9-1.9-3.5c0.4-6.1,0.4-12.3,0-18.4
		c-0.1-2,0.4-3.4,2.5-4.4c5.2-2.4,10.1-5.2,15.2-7.6c1.1-0.5,1.4-1.1,1.4-2.1c0-6.1,0-12.2,0-18.3c0-1.1-0.4-1.8-1.4-2.3
		c-4.8-2.7-9.6-5.5-14.5-8.3c-0.8-0.5-1.4-0.3-2.2,0.1c-5.3,3-10.6,5.8-15.9,8.8c-1.5,0.8-2.7,1.1-4.2,0.1
		c-5.5-3.2-11.2-6.3-16.8-9.4c-1.3-0.7-1.8-1.6-1.7-3.1c0.1-5.7,0-11.5,0-17.3c0-1.3-0.1-2.3-1.4-3.1c-5.2-2.8-10.2-5.8-15.5-8.5
		c-1.6-0.8-2.3-1.7-2.3-3.5c0-5.9,0-11.8,0-17.8c0-0.8,0.2-1.7-0.8-2.3c-4.5-2.7-8.9-5.6-13.2-8.4c-1.3-0.8-2.3-0.9-3.7,0
		c-4.6,2.9-9.4,5.6-14.1,8.4c-1.2,0.7-2.2,1.1-3.7,0.1c-5-3.1-10.1-5.7-15.1-8.6c-1.6-0.9-2.9-0.9-4.5,0c-4.6,2.6-9.3,5.2-14.1,7.6
		c-1.7,0.9-2.5,1.9-2.4,3.9c0.2,4.9,0.3,9.9,0.1,14.8c0,1.6,0.3,2.4,1.6,3.2c5.2,3.1,10.4,6.2,15.7,9.2c1.2,0.7,1.7,1.4,1.7,2.8
		c0,5.7,0,11.5,0,17.3c0,0.8-0.3,1.7,0.7,2.3c5.3,3.2,10.5,6.6,15.9,9.7c1.8,1,2.4,2.1,2.3,4c0,5.8,0,11.7-0.1,17.5
		c0,1.6,0.4,2.6,1.9,3.5c4.5,2.5,8.9,5.3,13.4,7.7c1.4,0.7,1.8,1.6,1.8,3c0,5.9,0.1,11.8,0,17.8c0,2,0.7,2.9,2.4,3.7
		c4.6,2.2,9.1,4.4,13.6,6.8c1.4,0.7,2.4,0.7,3.8,0c5.3-2.8,10.7-5.4,16-8.2c1-0.5,1.9-0.7,3-0.1c5.2,2.9,10.4,5.8,15.7,8.7
		c1.5,0.8,2.2,1.8,2.1,3.6C258,319.7,258.2,322.7,258.2,325.6z M256.2,326.6c0,0-0.1,0-0.2,0c0-2.9,0-5.8,0-8.8
		c0-1.2-0.2-2.2-1.4-2.9c-4.8-2.7-9.6-5.3-14.4-8c-0.7-0.4-1.4-0.6-2.3-0.1c-5.3,2.8-10.7,5.5-16,8.2c-0.9,0.5-1.3,1.2-1.3,2.3
		c0,5.9,0,11.8,0,17.8c0,1.2,0.4,2.2,1.5,2.8c5.3,2.7,10.5,5.4,15.8,8c1,0.5,1.9,0.6,3,0c4.5-2.6,9.1-5.3,13.6-7.8
		c1.2-0.7,1.8-1.4,1.7-2.9C256.1,332.4,256.2,329.5,256.2,326.6z"/>
	<path fill="#DDE0E2" d="M126.8,304.3c-2.4,1.8-5.1,3.1-7.7,4.4c0-0.8-0.3-1.8,0.5-2.2c1.8-0.7,1.6-1.7,0.4-3.1
		C122.5,303.1,124.6,304.7,126.8,304.3z"/>
	<path fill="#DDE0E2" d="M463.5,304.2c-0.5-0.4-0.4-1-0.4-1.6c0-6.6,0-13.2,0-19.9c0.4,0.4,0.4,0.8,0.4,1.4
		C463.5,290.8,463.5,297.5,463.5,304.2z"/>
	<path fill="#DDE0E2" d="M116.9,306.3c0.8,0,1.1,0.4,1,1c0,0.6-0.4,0.8-1,0.8c-0.6,0-0.8-0.4-0.8-1
		C116.2,306.5,116.5,306.3,116.9,306.3z"/>
	<path fill="#DDE0E2" d="M114.1,307.3c-0.1-0.1-0.6-0.3-0.6-0.6c0-0.5,0.5-0.5,0.8-0.5c0.4,0,0.7,0.3,0.7,0.7
		C114.9,307.4,114.7,307.5,114.1,307.3z"/>
	<path fill="#DDE0E2" d="M118.4,309.1c-0.3,0.5-0.8,0.8-1.4,0.8C117.1,309,117.8,309.1,118.4,309.1z"/>
	<path fill="#DDE0E2" d="M116.5,310.1c-0.4,0.4-0.8,0.8-1.4,0.9C115.2,310.1,115.8,310,116.5,310.1z"/>
	<path fill="#DDE0E2" d="M165.7,295.2c0-3.1,0-6.2,0-9.2c0-1.3,0.4-1.9,1.6-2.6c5-2.5,9.9-5.2,14.8-7.9c1-0.5,1.7-0.5,2.6,0
		c4.3,2.6,8.7,5.2,13.1,7.6c1.6,0.9,1.7,2.2,1.7,3.7c0,5.7,0,11.5-0.1,17.3c0,1.6,0.4,2.4,1.9,3.2c4.8,2.7,10,4.6,14.7,7.3
		c1.4,0.8,2,1.5,2.1,3.6c0.3,6.2,0,12.5,0.1,18.6c0,2.6,2.3,3.3,3.8,3.8c5.4,2.1,10.3,5.3,15.5,7.7c1.5,0.7,2.6,0.7,4-0.1
		c4.4-2.7,9-5.2,13.3-7.8c1.8-1.1,3.3-0.9,4.9,0c5,2.7,10,5.3,14.9,7.9c1.6,0.9,3,1.1,4.7,0c4.7-2.9,9.6-5.6,14.4-8.4
		c1-0.6,1.8-0.7,2.9-0.1c4.7,2.5,9.5,4.8,14.3,7.1c1.6,0.8,2.1,1.7,2,3.6c-0.2,5.4-0.2,10.9-0.1,16.3c0,1.8-0.5,2.9-2.2,3.8
		c-5.2,3-10.3,6.2-15.4,9.2c-1.2,0.7-1.2,1.6-1.2,2.6c0,5.7,0,11.3,0,17c0,1.4-0.5,2.2-1.7,2.9c-5.4,3.2-10.8,6.6-16.2,9.7
		c-1,0.6-1.2,1.2-1.2,2.1c0,6.5,0,13-0.1,19.5c0,1,0.4,1.5,1.3,2c5.3,3.1,10.5,6.3,15.8,9.4c1.4,0.8,2,1.8,2,3.5
		c-0.1,5.3,0,10.6,0,15.8c0,1.1-0.1,1.8-1.3,2.5c-5.1,3.1-10.3,6-15.5,8.9c-1.7,0.9-2.4,2-2.3,4c0.2,5.4,0,10.7,0.1,16.1
		c0,2.2-0.8,3.5-2.6,4.4c-4.7,2.5-9.1,5.4-14,7.5c-1.7,0.7-2.2,1.8-2.2,3.6c0.1,5.8,0,11.7,0,17.5c0,1.5-0.4,2.4-1.7,3.2
		c-4.6,2.7-9.2,5.4-13.8,8.2c-1.3,0.8-2.2,0.8-3.6,0c-4.8-2.8-9.6-5.7-14.3-8.6c-1.8-1.1-2.5-2.5-2.4-4.6c0.2-5-0.2-10.1,0.2-15.1
		c0.1-1.7-0.3-2.8-1.9-3.7c-5-2.8-9.9-5.7-14.8-8.7c-1.7-1-2.5-2.2-2.4-4.3c0.2-5.3,0-10.6,0.1-15.8c0-1.8-0.5-2.8-2.1-3.8
		c-4.8-2.9-9.3-6.1-14-9.1c-1.1-0.7-0.9-1.6-0.9-2.5c0-5.6,0-11.2,0-16.8c0-2-0.6-3.1-2.6-4.2c-5-2.8-10.1-5.4-14.7-8.8
		c-1.4-1.1-2.9-1-4.5,0c-5,3.1-9.7,6.6-15.1,8.7c-3.7,1.4-3.3,3.6-3.3,6.1c0,5.1,0,10.2,0,15.3c0,1.4-0.4,2.1-1.7,2.8
		c-4.7,2.5-9.3,5.2-13.8,8c-1.5,0.9-2.6,0.7-3.7,0c-4.9-2.8-9.7-5.7-14.6-8.4c-1.3-0.7-1.7-1.5-1.7-2.9c0-5.5,0-10.9,0-16.3
		c0-2.1-0.4-3.6-2.7-4.7c-5-2.5-9.8-5.6-14.6-8.6c-1.8-1.1-3.2-1-4.9,0.1c-4.4,3-9,5.7-13.5,8.6c-1.1,0.7-2.1,0.7-3.2,0
		c-3.8-2.6-7.9-5.2-12.1-6.9c-3.9-1.6-4.5-3.7-4.3-7.2c0.2-4.3,0.1-8.6,0-12.9c0-1.6,0.4-2.6,1.8-3.4c4.5-2.8,8.9-5.6,13.3-8.4
		c1.6-1,2.4-2,2.3-4c-0.2-5.6-0.2-11.3,0-17c0-2.3-0.7-3.8-2.7-4.9c-4.7-2.5-9-5.6-13.5-8.5c-0.9-0.6-1.2-1.1-1.2-2.1
		c0-5.5,0-11,0-16.5c0-1.7,0.8-2.7,2.5-3.7c4-2.1,7.7-4.9,11.7-7c2.6-1.3,3.3-2.9,3.2-5.7c-0.2-5.3,0-10.6-0.1-15.8
		c0-1.9,0.7-3,2.2-3.9c5-2.7,9.9-5.4,14.8-8.2c1-0.6,1.8-0.3,2.7,0.2c5.5,3,10.9,5.9,16.3,9c1.2,0.7,2,0.7,3.3,0
		c5.1-3,10.4-5.8,15.5-8.8c1.4-0.8,2.3-0.7,3.7,0.1c5.1,3.1,10.4,5.9,15.6,8.9c1,0.5,1.8,0.6,2.7,0c5.4-3.1,10.8-6.3,16.2-9.3
		c1.3-0.7,1.6-1.6,1.6-2.9C165.6,301.2,165.7,298.2,165.7,295.2L165.7,295.2z M165.7,359.1L165.7,359.1c0-3.2,0-6.3,0-9.5
		c0-1.4-0.3-2.2-1.6-2.9c-5.8-3-11.6-6.1-17.3-9.2c-1.2-0.7-2.3-0.6-3.4,0.1c-5.5,3.4-11,6.8-16.4,10.2c-0.8,0.5-1.2,1.1-1.2,2.1
		c0,6.3,0,12.7,0,19c0,1.2,0.4,1.9,1.5,2.5c5.8,3.2,11.6,6.3,17.4,9.5c1,0.5,1.9,0.7,3,0.1c5.5-3.2,11-6.4,16.6-9.5
		c1.2-0.6,1.6-1.5,1.5-2.7C165.7,365.5,165.7,362.3,165.7,359.1z"/>
	<path fill="#DDE0E2" d="M315.5,358.4c0-2.8,0.2-5.5-0.1-8.3c-0.2-1.8,0.6-2.5,1.9-3.3c4.1-2.3,8.1-4.7,12.1-7.1
		c1.5-0.9,2.8-1.1,4.4-0.1c5,3,10.1,5.7,15.1,8.7c1.3,0.8,2.4,0.9,3.8,0c4.9-2.8,10-5.4,14.7-8.4c2.6-1.7,4.5-0.5,6.4,0.6
		c4.5,2.5,8.9,5.2,13.4,7.8c1.6,0.9,2.8,0.6,4.4-0.3c5-3,10.1-5.7,15.1-8.6c1-0.6,1.9-0.5,2.9,0.1c5.3,3,10.6,6,15.8,9.1
		c1.1,0.6,2,0.6,3.1,0c4.5-2.8,9.2-5.4,13.7-8.2c1.9-1.2,3.6-1.1,5.5,0.1c4.3,2.9,8.7,5.5,13.1,8.2c1.2,0.7,2.1,0.7,3.4,0
		c5.1-3.1,10.3-6.1,15.4-9.2c1-0.6,1.8-0.6,2.9,0c4.8,2.9,9.5,5.7,14.4,8.5c1.4,0.8,1.9,1.7,1.9,3.3c0,5.5-0.1,10.9,0,16.3
		c0.1,3-2.5,3.1-4,4.1c-4,2.6-8.3,4.7-12.5,6.9c-1.6,0.8-2.3,1.8-2.3,3.7c0,6.9,0.4,13.8-0.2,20.6c0,0.5,0,1,0.6,1.1
		c4.8,1.4,8.8,4.5,13.1,6.8c0.5,0.2,0.8,0.9,1.3,1c3.8,0.9,4.1,3.6,4,6.9c-0.2,4.9,0,9.9,0,14.8c0,1.2,0.2,1.8,1.4,2.5
		c5.5,3.1,10.8,6.4,16.3,9.5c1.1,0.6,1.6,1.2,1.6,2.6c-0.1,5.4,0,10.7,0,16.1c0,1.2-0.3,2.1-1.5,2.8c-5.1,2.9-10.1,6-15.2,8.9
		c-1.8,1-2.6,2.2-2.5,4.3c0.1,5.4,0,10.7,0.1,16.1c0,1.5-0.3,2.4-1.8,3.3c-4.5,2.7-8.9,5.5-13.2,8.5c-1.5,1-2.5,0.8-3.9,0
		c-4.9-2.9-9.8-5.7-14.7-8.6c-1.3-0.7-2.3-0.7-3.6,0.1c-4.8,3-9.7,5.8-14.5,8.8c-1.1,0.7-1.9,0.7-3.1,0.1c-4.8-2.8-9.7-5.5-14.6-8.1
		c-1.5-0.8-2.2-1.8-2.1-3.7c0.1-5.7,0-11.5,0-17.3c0-1.1-0.1-2-1.2-2.7c-5.5-3.3-11.1-6.6-16.6-10c-1.1-0.7-1.8-0.6-2.8,0
		c-5.2,3-10.5,5.8-15.7,8.7c-1.3,0.7-2.4,1.3-4,0.3c-4.7-2.8-9.6-5.4-14.4-8c-1.7-0.9-2.2-2-2.1-3.8c0.1-5.4,0-10.7,0-16.1
		c0-1.8-0.5-2.9-2.1-3.9c-4.5-2.6-9-5.3-13.6-7.8c-1.8-1-3.4-2.3-3.2-5.1c0.3-4.8,0.1-9.6,0-14.4c0-1.7,0.5-2.7,1.9-3.5
		c5.2-3.1,10.3-6.3,15.5-9.3c1.1-0.6,1.5-1.3,1.5-2.5c0-6.3,0-12.7,0-19c0-1.2-0.5-1.9-1.5-2.5c-5.5-3.5-10.9-6.9-16.3-10.5
		c-1.2-0.8-2-0.7-3.3,0c-5.3,2.8-10.5,5.9-16,8.5c-1,0.5-1.7,0.5-2.6,0c-4.5-2.5-9-5-13.5-7.4c-1.4-0.7-2-1.6-1.9-3.2
		C315.5,364.2,315.4,361.3,315.5,358.4C315.4,358.4,315.4,358.4,315.5,358.4z M463.1,423C463.1,423,463.1,423,463.1,423
		c0.1-2.5,0-5,0.1-7.5c0.1-1.9-0.7-3.1-2.3-4.1c-4.8-3-9.4-6.1-14.1-9.3c-1.2-0.8-2.1-0.8-3.3-0.1c-5.4,3.2-10.8,6.4-16.3,9.6
		c-1.5,0.8-2.2,1.8-2.2,3.7c0,5.8,0,11.6,0,17.5c0,1.8,0.6,3,2.2,3.8c5.2,2.9,10.5,5.7,15.3,9.2c1,0.7,2.1,0.9,3.2,0.1
		c5.3-3.3,10.6-6.5,15.9-9.7c1.1-0.6,1.5-1.4,1.5-2.7C463,430,463.1,426.5,463.1,423z"/>
	<path fill="#DDE0E2" d="M296.6,325.9c0-2.7,0-5.4,0-8c0.1-2.6-0.1-4.5-3.4-5.4c-3.7-1.1-7-3.7-10.7-5.1c-4.3-1.6-5.4-4.3-5-8.6
		c0.3-4.3,0.1-8.8,0-13.1c0-1.6,0.6-2.4,2-3.1c5.2-2.5,10.4-5.2,15.5-7.7c1.2-0.6,1.7-1.3,1.7-2.6c-0.1-6.1,0.2-12.3-0.3-18.4
		c-0.1-1.4,0.3-2.3,1.5-3c5-3.3,10.4-5.8,15.7-8.7c0.8-0.4,1.4-0.1,2,0.3c5.1,3.1,10.2,6.1,15.2,9.3c1.1,0.7,1.8,0.4,2.6,0
		c4.3-2.4,8.8-4.5,12.8-7.3c3.5-2.4,6.4-2.6,9.7-0.1c3.7,2.6,7.9,4.3,11.5,7c1.4,1,3.3,1,5,0c4.7-2.7,9.4-5.5,14.5-7.8
		c1.6-0.7,2.6-1.8,2.5-3.9c-0.2-6,0-12-0.1-18c0-1.6,0.3-2.5,1.8-3.3c4.9-2.6,9.7-5.4,14.6-8c1.2-0.7,2.2-0.7,3.6,0
		c4.4,2.7,9,5.1,13.5,7.6c1.5,0.8,2,1.8,2,3.5c-0.1,5.8,0,11.7,0,17.5c0,1.4,0.4,2.2,1.6,2.9c5,2.7,10,5.5,15,8.3
		c1.8,1,2.6,2.2,2.5,4.4c-0.2,5.7,0,11.5-0.1,17.3c0,1.1,0.2,1.7,1.2,2.3c4.6,2.7,9.1,5.6,13.7,8.3c1.6,0.9,2.1,2,2,3.7
		c0,5.8,0,11.7,0,17.5c0,1.9,0.6,2.8,2.5,3.7c5.3,2.4,10.4,5.3,15.5,8c1,0.5,1.2,1.7,1.2,2.8c0,5.7,0,11.3,0,17c0,1.4-0.7,2-1.8,2.6
		c-4.9,2.9-9.8,5.7-14.6,8.7c-1.1,0.7-1.8,0.3-2.6-0.2c-4.8-2.9-9.5-5.7-14.3-8.7c-1.4-0.8-2.4-0.9-3.7,0c-4.8,2.9-9.7,5.5-14.4,8.4
		c-1.3,0.8-2.2,0.8-3.5,0.1c-5.3-3-10.6-5.9-15.8-8.9c-1.3-0.7-2.2-0.6-3.4,0.1c-5.1,3-10.2,5.9-15.3,8.9c-1.2,0.7-2.2,0.7-3.4,0
		c-5.1-3-10.3-5.8-15.3-8.8c-1.5-0.8-2.6-0.8-4,0c-5.1,3-10.3,5.7-15.4,8.7c-1.3,0.8-2.3,0.6-3.6-0.1c-5.2-3-10.5-5.8-15.6-8.8
		c-1.3-0.7-2.3-0.8-3.6,0c-4.6,2.8-9.3,5.5-13.9,8.3c-1.4,0.9-2.5,0.3-3.7-0.1c-4.8-2.2-9.5-4.7-14.3-7c-1-0.5-1.4-1.2-1.4-2.3
		c0-3.3,0-6.5,0-9.7C296.6,325.9,296.6,325.9,296.6,325.9z"/>
	<path fill="#DDE0E2" d="M368.2,520.3c0,3,0,6,0,9c0,1.3-0.4,2.1-1.5,2.7c-5,2.6-9.6,5.9-14.7,8.3c-1,0.5-1.7,0.5-2.6,0
		c-5-3-10.1-5.7-15.1-8.7c-1.6-1-2.8-0.7-4.2,0.1c-4.7,2.9-9.6,5.7-14.3,8.7c-1.8,1.1-2.9-0.2-3.9-0.8c-4.7-2.7-9.3-5.6-14-8.4
		c-1-0.6-1.3-1.2-1.2-2.3c0.4-6,0.1-12,0-17.9c0-2.1-1.9-3.2-3.6-3.9c-5-2.1-9.4-5.2-14.3-7.5c-1-0.5-1.2-1.3-1.2-2.4
		c0-5.5,0.1-11,0-16.5c0-1.5,0.5-2.3,1.8-3.1c4.9-2.8,9.8-5.7,14.7-8.5c1.7-0.9,2.4-2,2.3-4c-0.1-5.7-0.1-11.3,0-17
		c0-2.1-0.6-3.3-2.3-4.3c-4.7-2.8-9.4-5.7-14.2-8.4c-1.7-0.9-2.4-2-2.4-4c0.1-4.5,0.3-9,0-13.4c-0.2-2.8,0.9-4.3,3-5.5
		c4.5-2.6,8.9-5.3,13.4-7.8c1.7-1,2.5-2.1,2.5-4.2c-0.2-5.5,0-11,0-16.5c0-1,0-1.8,1.1-2.4c5.3-3,10.5-6,15.7-9.2
		c1.1-0.7,1.8-0.5,2.8,0c4.9,2.8,9.9,5.4,14.8,8.2c1.3,0.7,2.1,0.6,3.3,0c5-2.8,10.1-5.3,15.1-8.2c1.6-0.9,2.8-0.7,3.9,0.1
		c4.8,3,9.5,6.1,14.3,9.1c0.8,0.5,0.9,1.3,0.9,2.1c0,5.5,0,11,0,16.5c0,1.4-0.7,2-1.8,2.6c-5.2,3.2-10.4,6.4-15.7,9.4
		c-1.5,0.9-1.8,2-1.8,3.4c0.3,6.1,0,12.3,0,18.4c0,2.4,2.2,2.7,3.6,3.5c4.6,2.9,9.3,5.4,14,8.1c1.3,0.8,1.7,2,1.7,3.5
		c0,5.6,0,11.2,0,16.8c0,1.4,0.4,2.2,1.7,2.9c5.6,3,11.2,6.1,16.7,9.2c1.4,0.8,2.5,0.9,4,0c5.2-3,10.5-5.8,15.7-8.7
		c1.1-0.6,2-0.8,3.3,0c4.5,2.9,9.2,5.7,13.9,8.4c1.3,0.7,1.7,1.7,1.6,3c0,5.6-0.1,11.2-0.1,16.8c0,1.2-0.4,1.9-1.5,2.5
		c-4.8,2.7-9.5,5.5-14.2,8.3c-0.8,0.5-1.4,0.4-2.2,0c-5.2-2.9-10.5-5.7-15.6-8.8c-1.7-1-3.1-0.9-4.7,0c-5.5,3.1-11,6.2-16.6,9.1
		c-1.6,0.8-2,1.8-2,3.4C368.3,514.6,368.2,517.4,368.2,520.3C368.2,520.3,368.2,520.3,368.2,520.3z"/>
	<path fill="#DDE0E2" d="M258.2,325.6c0-2.9-0.1-5.8,0-8.8c0.1-1.8-0.6-2.8-2.1-3.6c-5.3-2.8-10.5-5.7-15.7-8.7
		c-1.1-0.6-1.9-0.4-3,0.1c-5.3,2.8-10.7,5.4-16,8.2c-1.4,0.7-2.4,0.7-3.8,0c-4.5-2.4-9.1-4.6-13.6-6.8c-1.7-0.8-2.4-1.7-2.4-3.7
		c0.1-5.9,0-11.8,0-17.8c0-1.5-0.4-2.3-1.8-3c-4.5-2.5-8.9-5.3-13.4-7.7c-1.5-0.8-1.9-1.8-1.9-3.5c0.1-5.8,0-11.7,0.1-17.5
		c0-1.9-0.6-3-2.3-4c-5.4-3.1-10.6-6.5-15.9-9.7c-1.1-0.6-0.7-1.6-0.7-2.3c0-5.7-0.1-11.5,0-17.3c0-1.4-0.5-2.1-1.7-2.8
		c-5.4-3-10.6-6.1-15.8-9.2c-1.3-0.7-1.6-1.6-1.6-3.2c0.1-4.9,0-9.9-0.1-14.8c-0.1-2,0.7-3,2.4-3.9c4.8-2.4,9.4-5,14.1-7.6
		c1.6-0.9,2.9-0.9,4.5,0c5,2.9,10.2,5.5,15.1,8.5c1.5,0.9,2.5,0.6,3.7-0.1c4.7-2.8,9.5-5.5,14.1-8.4c1.4-0.9,2.5-0.9,3.7,0
		c4.4,2.8,8.8,5.7,13.2,8.4c1,0.6,0.8,1.5,0.8,2.3c0,5.9,0.1,11.8,0,17.8c0,1.8,0.7,2.7,2.3,3.5c5.2,2.7,10.3,5.7,15.5,8.5
		c1.3,0.7,1.4,1.8,1.4,3.1c0,5.7,0,11.5,0,17.3c0,1.5,0.4,2.4,1.7,3.1c5.6,3.1,11.2,6.2,16.8,9.4c1.6,0.9,2.8,0.7,4.2-0.1
		c5.3-3,10.6-5.8,15.9-8.8c0.8-0.4,1.4-0.6,2.2-0.1c4.8,2.8,9.6,5.6,14.5,8.3c1,0.5,1.4,1.3,1.4,2.3c0,6.1,0,12.2,0,18.3
		c0,1.1-0.3,1.7-1.4,2.1c-5.1,2.5-10.1,5.3-15.2,7.6c-2.1,1-2.6,2.3-2.5,4.4c0.4,6.1,0.4,12.3,0,18.4c-0.1,1.6,0.4,2.7,1.9,3.5
		c5.4,2.7,10.9,5.2,16.1,8.2c1,0.6,1.2,1.1,1.2,2c0,5.5,0.1,10.9,0,16.3c0,2.2-0.8,4-3.1,5.2c-4.2,2.1-8.2,4.6-12.2,7
		c-1.2,0.7-2,0.9-3.3,0.2c-5-2.7-10-5.3-15.1-7.8c-1.8-0.9-2.6-2-2.5-4.1C258.3,331.4,258.2,328.5,258.2,325.6L258.2,325.6z"/>
	<path fill="#DDE0E2" d="M256.2,326.6c0,2.9-0.1,5.8,0,8.8c0,1.5-0.5,2.2-1.7,2.9c-4.6,2.6-9.1,5.2-13.6,7.8c-1.1,0.6-1.9,0.5-3,0
		c-5.3-2.7-10.5-5.4-15.8-8c-1.1-0.6-1.6-1.6-1.5-2.8c0-5.9,0-11.8,0-17.8c0-1.1,0.4-1.8,1.3-2.3c5.3-2.7,10.7-5.5,16-8.2
		c0.8-0.4,1.5-0.3,2.3,0.1c4.8,2.7,9.6,5.3,14.4,8c1.1,0.6,1.4,1.7,1.4,2.9c0,2.9,0,5.8,0,8.8C256.1,326.6,256.1,326.6,256.2,326.6z
		"/>
	<path fill="#2A98E1" d="M165.7,359.1c0,3.3,0,6.5,0,9.7c0,1.3-0.3,2.1-1.5,2.7c-5.5,3.1-11,6.3-16.6,9.5c-1,0.6-2,0.4-3-0.1
		c-5.8-3.2-11.6-6.4-17.4-9.5c-1-0.6-1.5-1.3-1.5-2.5c0-6.3,0-12.7,0-19c0-1,0.4-1.6,1.2-2.1c5.5-3.4,11-6.8,16.4-10.2
		c1.1-0.7,2.2-0.7,3.4-0.1c5.7,3.1,11.5,6.2,17.3,9.2c1.3,0.7,1.6,1.6,1.6,2.9C165.7,352.7,165.7,355.9,165.7,359.1L165.7,359.1z
		 M163.7,359.2c0-2.7-0.1-5.4,0-8c0.1-1.6-0.5-2.5-1.9-3.2c-4.9-2.5-9.7-5-14.6-7.7c-1.6-0.9-2.7-0.9-4.1,0
		c-4.5,2.8-8.9,5.8-13.7,8.2c-1,0.5-1.7,1.4-1.7,2.6c0,5.6,0,11.2,0,16.7c0,0.9,0.3,1.5,1.1,1.9c5.4,2.9,10.8,5.8,16.2,8.8
		c0.9,0.5,1.5,0.5,2.4,0c4.9-2.8,9.8-5.5,14.8-8.3c1.1-0.6,1.6-1.4,1.5-2.7C163.6,364.7,163.7,362,163.7,359.2z"/>
	<path fill="#2A98E1" d="M463.1,423c0,3.5,0,7,0,10.4c0,1.3-0.4,2.1-1.5,2.7c-5.3,3.2-10.6,6.5-15.9,9.7c-1.1,0.7-2.2,0.5-3.2-0.1
		c-4.9-3.5-10.1-6.3-15.3-9.2c-1.6-0.9-2.3-2-2.2-3.8c0.1-5.8,0.1-11.6,0-17.5c0-1.8,0.8-2.8,2.2-3.7c5.5-3.2,10.9-6.4,16.3-9.6
		c1.2-0.7,2.1-0.7,3.3,0.1c4.7,3.2,9.4,6.3,14.1,9.3c1.6,1,2.4,2.2,2.3,4.1C463.1,418,463.1,420.5,463.1,423
		C463.1,423,463.1,423,463.1,423z M461.1,424.2L461.1,424.2c0-2.8,0-5.5,0-8.3c0-1.2-0.4-1.9-1.4-2.6c-4.4-2.9-8.8-5.7-13.1-8.7
		c-1.1-0.7-2-0.8-3.1-0.1c-5,3-10,5.9-15,8.9c-1,0.6-1.4,1.4-1.4,2.6c0,5.4,0,10.7,0,16.1c0,1.3,0.5,2,1.7,2.7
		c4.8,2.8,9.5,5.5,14.2,8.4c1.2,0.7,2.2,0.6,3.4-0.1c4.3-2.6,8.5-5.3,12.8-7.8c1.4-0.8,2.1-1.8,2-3.5
		C461,429.2,461.1,426.7,461.1,424.2z"/>
	<path fill="#DDE0E2" d="M163.7,359.2c0,2.8,0,5.5,0,8.3c0,1.3-0.4,2.1-1.5,2.7c-5,2.7-9.9,5.5-14.8,8.3c-0.9,0.5-1.5,0.5-2.4,0
		c-5.4-3-10.8-5.8-16.2-8.8c-0.8-0.4-1.2-1-1.1-1.9c0-5.6,0-11.2,0-16.7c0-1.3,0.7-2.1,1.7-2.6c4.8-2.3,9.2-5.4,13.7-8.2
		c1.5-0.9,2.6-0.9,4.1,0c4.8,2.7,9.6,5.2,14.6,7.7c1.4,0.7,2,1.6,1.9,3.2C163.6,353.9,163.7,356.5,163.7,359.2z"/>
	<path fill="#DDE0E2" d="M461.1,424.2c0,2.5-0.1,5,0,7.5c0.1,1.7-0.6,2.7-2,3.5c-4.3,2.5-8.6,5.2-12.8,7.8c-1.2,0.7-2.1,0.8-3.4,0.1
		c-4.7-2.9-9.4-5.6-14.2-8.4c-1.1-0.6-1.7-1.4-1.7-2.7c0-5.4,0-10.7,0-16.1c0-1.2,0.4-2,1.4-2.6c5-3,10-5.9,15-8.9
		c1.1-0.7,2.1-0.6,3.1,0.1c4.4,2.9,8.8,5.8,13.1,8.7c1,0.6,1.4,1.4,1.4,2.6C461.1,418.7,461.1,421.5,461.1,424.2L461.1,424.2z"/>
</g>
</svg>
